<!--?xml version="1.0" encoding="UTF-8"?-->
<svg xmlns="http://www.w3.org/2000/svg" xmlns:xlink="http://www.w3.org/1999/xlink">
    <symbol id="gm-cog" viewBox="0 0 512 512" class="l512">
        <path fill="currentColor" d="M452.515 237l31.843-18.382c9.426-5.441 13.996-16.542 11.177-27.054-11.404-42.531-33.842-80.547-64.058-110.797-7.68-7.688-19.575-9.246-28.985-3.811l-31.785 18.358a196.276 196.276 0 0 0-32.899-19.02V39.541a24.016 24.016 0 0 0-17.842-23.206c-41.761-11.107-86.117-11.121-127.93-.001-10.519 2.798-17.844 12.321-17.844 23.206v36.753a196.276 196.276 0 0 0-32.899 19.02l-31.785-18.358c-9.41-5.435-21.305-3.877-28.985 3.811-30.216 30.25-52.654 68.265-64.058 110.797-2.819 10.512 1.751 21.613 11.177 27.054L59.485 237a197.715 197.715 0 0 0 0 37.999l-31.843 18.382c-9.426 5.441-13.996 16.542-11.177 27.054 11.404 42.531 33.842 80.547 64.058 110.797 7.68 7.688 19.575 9.246 28.985 3.811l31.785-18.358a196.202 196.202 0 0 0 32.899 19.019v36.753a24.016 24.016 0 0 0 17.842 23.206c41.761 11.107 86.117 11.122 127.93.001 10.519-2.798 17.844-12.321 17.844-23.206v-36.753a196.34 196.34 0 0 0 32.899-19.019l31.785 18.358c9.41 5.435 21.305 3.877 28.985-3.811 30.216-30.25 52.654-68.266 64.058-110.797 2.819-10.512-1.751-21.613-11.177-27.054L452.515 275c1.22-12.65 1.22-25.35 0-38zm-52.679 63.019l43.819 25.289a200.138 200.138 0 0 1-33.849 58.528l-43.829-25.309c-31.984 27.397-36.659 30.077-76.168 44.029v50.599a200.917 200.917 0 0 1-67.618 0v-50.599c-39.504-13.95-44.196-16.642-76.168-44.029l-43.829 25.309a200.15 200.15 0 0 1-33.849-58.528l43.819-25.289c-7.63-41.299-7.634-46.719 0-88.038l-43.819-25.289c7.85-21.229 19.31-41.049 33.849-58.529l43.829 25.309c31.984-27.397 36.66-30.078 76.168-44.029V58.845a200.917 200.917 0 0 1 67.618 0v50.599c39.504 13.95 44.196 16.642 76.168 44.029l43.829-25.309a200.143 200.143 0 0 1 33.849 58.529l-43.819 25.289c7.631 41.3 7.634 46.718 0 88.037zM256 160c-52.935 0-96 43.065-96 96s43.065 96 96 96 96-43.065 96-96-43.065-96-96-96zm0 144c-26.468 0-48-21.532-48-48 0-26.467 21.532-48 48-48s48 21.533 48 48c0 26.468-21.532 48-48 48z"></path>
    </symbol>
    <symbol id="gm-clipboard" viewBox="0 0 448 512" class="l448">
        <path fill="currentColor" d="M433.941 193.941l-51.882-51.882A48 48 0 0 0 348.118 128H320V80c0-26.51-21.49-48-48-48h-66.752C198.643 13.377 180.858 0 160 0s-38.643 13.377-45.248 32H48C21.49 32 0 53.49 0 80v288c0 26.51 21.49 48 48 48h80v48c0 26.51 21.49 48 48 48h224c26.51 0 48-21.49 48-48V227.882a48 48 0 0 0-14.059-33.941zm-22.627 22.627a15.888 15.888 0 0 1 4.195 7.432H352v-63.509a15.88 15.88 0 0 1 7.431 4.195l51.883 51.882zM160 30c9.941 0 18 8.059 18 18s-8.059 18-18 18-18-8.059-18-18 8.059-18 18-18zM48 384c-8.822 0-16-7.178-16-16V80c0-8.822 7.178-16 16-16h66.752c6.605 18.623 24.389 32 45.248 32s38.643-13.377 45.248-32H272c8.822 0 16 7.178 16 16v48H176c-26.51 0-48 21.49-48 48v208H48zm352 96H176c-8.822 0-16-7.178-16-16V176c0-8.822 7.178-16 16-16h144v72c0 13.2 10.8 24 24 24h72v208c0 8.822-7.178 16-16 16z" class=""></path>
    </symbol>
    <symbol id="gm-code" viewBox="0 0 576 512" class="l576">
        <path fill="currentColor" d="M234.8 511.7L196 500.4c-4.2-1.2-6.7-5.7-5.5-9.9L331.3 5.8c1.2-4.2 5.7-6.7 9.9-5.5L380 11.6c4.2 1.2 6.7 5.7 5.5 9.9L244.7 506.2c-1.2 4.3-5.6 6.7-9.9 5.5zm-83.2-121.1l27.2-29c3.1-3.3 2.8-8.5-.5-11.5L72.2 256l106.1-94.1c3.4-3 3.6-8.2.5-11.5l-27.2-29c-3-3.2-8.1-3.4-11.3-.4L2.5 250.2c-3.4 3.2-3.4 8.5 0 11.7L140.3 391c3.2 3 8.2 2.8 11.3-.4zm284.1.4l137.7-129.1c3.4-3.2 3.4-8.5 0-11.7L435.7 121c-3.2-3-8.3-2.9-11.3.4l-27.2 29c-3.1 3.3-2.8 8.5.5 11.5L503.8 256l-106.1 94.1c-3.4 3-3.6 8.2-.5 11.5l27.2 29c3.1 3.2 8.1 3.4 11.3.4z" class=""></path>
    </symbol>
    <symbol id="gm-cc" viewBox="0 0 512 512" class="l512">
        <path fill="currentColor" d="M464 64H48C21.5 64 0 85.5 0 112v288c0 26.5 21.5 48 48 48h416c26.5 0 48-21.5 48-48V112c0-26.5-21.5-48-48-48zm-6 336H54c-3.3 0-6-2.7-6-6V118c0-3.3 2.7-6 6-6h404c3.3 0 6 2.7 6 6v276c0 3.3-2.7 6-6 6zm-211.1-85.7c1.7 2.4 1.5 5.6-.5 7.7-53.6 56.8-172.8 32.1-172.8-67.9 0-97.3 121.7-119.5 172.5-70.1 2.1 2 2.5 3.2 1 5.7l-17.5 30.5c-1.9 3.1-6.2 4-9.1 1.7-40.8-32-94.6-14.9-94.6 31.2 0 48 51 70.5 92.2 32.6 2.8-2.5 7.1-2.1 9.2.9l19.6 27.7zm190.4 0c1.7 2.4 1.5 5.6-.5 7.7-53.6 56.9-172.8 32.1-172.8-67.9 0-97.3 121.7-119.5 172.5-70.1 2.1 2 2.5 3.2 1 5.7L420 220.2c-1.9 3.1-6.2 4-9.1 1.7-40.8-32-94.6-14.9-94.6 31.2 0 48 51 70.5 92.2 32.6 2.8-2.5 7.1-2.1 9.2.9l19.6 27.7z" class=""></path>
    </symbol>
    <symbol id="gm-popcorn" viewBox="0 0 512 512" class="l512">
        <path fill="currentColor" d="M440.17 138.22a68 68 0 0 0-19.8-22.31 66.9 66.9 0 0 0-49.47-61.38 67.33 67.33 0 0 0-68-35.65A67.69 67.69 0 0 0 255.94 0a65.92 65.92 0 0 0-46.47 18.89 67.18 67.18 0 0 0-68 35.64C110.7 62.78 93 90 91.74 116a65.84 65.84 0 0 0-19.83 22.78 64.67 64.67 0 0 0-3.37 54.86l39.76 290.68A32 32 0 0 0 140 512h232.35a32 32 0 0 0 31.73-27.68l40.08-293c5.92-17.13 5.3-36.23-3.99-53.1zM140 480l-39.28-288H176l16.22 288zm148.06 0h-63.78l-16.21-288h96.24zm84.26 0h-52.16l16.21-288h75.28zM98 160c4.42-15.78 17.82-23.38 29.78-24.57-13.9-26.22 9.64-56.43 38.11-50.43.55-29.22 34.33-44.9 56.37-27.17 11.74-41.86 67.59-25.63 67.59 0C312.6 40 345.94 56 346.49 85c28.57-6 51.45 23.81 38.15 50.45 12 1.2 25.44 9.11 29.74 24.57z" class=""></path>
    </symbol>
    <symbol id="gm-film" viewBox="0 0 512 512" class="l512">
        <path fill="currentColor" d="M488 64h-8v20c0 6.6-5.4 12-12 12h-40c-6.6 0-12-5.4-12-12V64H96v20c0 6.6-5.4 12-12 12H44c-6.6 0-12-5.4-12-12V64h-8C10.7 64 0 74.7 0 88v336c0 13.3 10.7 24 24 24h8v-20c0-6.6 5.4-12 12-12h40c6.6 0 12 5.4 12 12v20h320v-20c0-6.6 5.4-12 12-12h40c6.6 0 12 5.4 12 12v20h8c13.3 0 24-10.7 24-24V88c0-13.3-10.7-24-24-24zM96 372c0 6.6-5.4 12-12 12H44c-6.6 0-12-5.4-12-12v-40c0-6.6 5.4-12 12-12h40c6.6 0 12 5.4 12 12v40zm0-96c0 6.6-5.4 12-12 12H44c-6.6 0-12-5.4-12-12v-40c0-6.6 5.4-12 12-12h40c6.6 0 12 5.4 12 12v40zm0-96c0 6.6-5.4 12-12 12H44c-6.6 0-12-5.4-12-12v-40c0-6.6 5.4-12 12-12h40c6.6 0 12 5.4 12 12v40zm288 224c0 6.6-5.4 12-12 12H140c-6.6 0-12-5.4-12-12V284c0-6.6 5.4-12 12-12h232c6.6 0 12 5.4 12 12v120zm0-176c0 6.6-5.4 12-12 12H140c-6.6 0-12-5.4-12-12V108c0-6.6 5.4-12 12-12h232c6.6 0 12 5.4 12 12v120zm96 144c0 6.6-5.4 12-12 12h-40c-6.6 0-12-5.4-12-12v-40c0-6.6 5.4-12 12-12h40c6.6 0 12 5.4 12 12v40zm0-96c0 6.6-5.4 12-12 12h-40c-6.6 0-12-5.4-12-12v-40c0-6.6 5.4-12 12-12h40c6.6 0 12 5.4 12 12v40zm0-96c0 6.6-5.4 12-12 12h-40c-6.6 0-12-5.4-12-12v-40c0-6.6 5.4-12 12-12h40c6.6 0 12 5.4 12 12v40z" class=""></path>
    </symbol>
    <symbol id="gm-tvalt" viewBox="0 0 640 512" class="l640">
        <path fill="currentColor" d="M528 464H112a16 16 0 0 0-16 16v16a16 16 0 0 0 16 16h416a16 16 0 0 0 16-16v-16a16 16 0 0 0-16-16zM592 0H48A48 48 0 0 0 0 48v320a48 48 0 0 0 48 48h544a48 48 0 0 0 48-48V48a48 48 0 0 0-48-48zm0 368H48V48h544z" class=""></path>
    </symbol>
    <symbol id="gm-tvretro" viewBox="0 0 512 512" class="l512">
        <path fill="currentColor" d="M416 243v-8c0-6.6 5.4-12 12-12h8c6.6 0 12 5.4 12 12v8c0 6.6-5.4 12-12 12h-8c-6.6 0-12-5.4-12-12zm96-100v288c0 26.5-21.5 48-48 48h-16v33h-16l-11-33H91l-11 33H64v-33H48c-26.5 0-48-21.5-48-48V143c0-26.5 21.5-48 48-48h160.1l-74.8-67.1c-6.6-5.9-7.2-16-1.3-22.6 5.9-6.6 16-7.2 22.6-1.3L256 95h.8L357.3 4.1c6.6-5.9 16.7-5.4 22.6 1.2 5.9 6.6 5.4 16.7-1.2 22.6L304.5 95H464c26.5 0 48 21.5 48 48zm-32 0c0-8.8-7.2-16-16-16H48c-8.8 0-16 7.2-16 16v288c0 8.8 7.2 16 16 16h416c8.8 0 16-7.2 16-16V143zm-256 49c-68.8 0-106.2 2.3-125.3 4.3-1.3 14.4-2.7 41.5-2.7 90.7 0 50.5 1.4 78 2.7 92.8 19.2 1.9 56.5 4.2 125.3 4.2s106.1-2.3 125.3-4.2c1.3-14.7 2.7-42.3 2.7-92.8 0-49.2-1.4-76.3-2.7-90.7-19.1-2-56.5-4.3-125.3-4.3m0-32c128 0 152 8 152 8s8 0 8 119c0 121-8 121-8 121s-24 8-152 8-152-8-152-8-8 0-8-121c0-119 8-119 8-119s24-8 152-8zm204 159h8c6.6 0 12-5.4 12-12v-8c0-6.6-5.4-12-12-12h-8c-6.6 0-12 5.4-12 12v8c0 6.6 5.4 12 12 12z" class=""></path>
    </symbol>
    <symbol id="gm-arrowright" viewBox="0 0 448 512" class="l448">
        <path fill="currentColor" d="M190.5 66.9l22.2-22.2c9.4-9.4 24.6-9.4 33.9 0L441 239c9.4 9.4 9.4 24.6 0 33.9L246.6 467.3c-9.4 9.4-24.6 9.4-33.9 0l-22.2-22.2c-9.5-9.5-9.3-25 .4-34.3L311.4 296H24c-13.3 0-24-10.7-24-24v-32c0-13.3 10.7-24 24-24h287.4L190.9 101.2c-9.8-9.3-10-24.8-.4-34.3z" class=""></path>
    </symbol>
    <symbol id="gm-arrowleft" viewBox="0 0 448 512" class="l448">
        <path fill="currentColor" d="M257.5 445.1l-22.2 22.2c-9.4 9.4-24.6 9.4-33.9 0L7 273c-9.4-9.4-9.4-24.6 0-33.9L201.4 44.7c9.4-9.4 24.6-9.4 33.9 0l22.2 22.2c9.5 9.5 9.3 25-.4 34.3L136.6 216H424c13.3 0 24 10.7 24 24v32c0 13.3-10.7 24-24 24H136.6l120.5 114.8c9.8 9.3 10 24.8.4 34.3z" class=""></path>
    </symbol>
</svg>